<?xml version="1.0" encoding="UTF-8"?>
<!DOCTYPE svg PUBLIC "-//W3C//DTD SVG 1.1//EN" "http://www.w3.org/Graphics/SVG/1.1/DTD/svg11.dtd">
<svg xmlns="http://www.w3.org/2000/svg" version="1.1" width="512px" height="512px" style="shape-rendering:geometricPrecision; text-rendering:geometricPrecision; image-rendering:optimizeQuality; fill-rule:evenodd; clip-rule:evenodd" xmlns:xlink="http://www.w3.org/1999/xlink">
<g><path style="opacity:0.998" fill="#1877f2" d="M 232.5,-0.5 C 247.833,-0.5 263.167,-0.5 278.5,-0.5C 368.144,10.3879 435.644,54.7213 481,132.5C 497.695,163.971 507.861,197.304 511.5,232.5C 511.5,247.833 511.5,263.167 511.5,278.5C 500.611,368.146 456.278,435.646 378.5,481C 352.449,495.072 324.783,504.239 295.5,508.5C 295.5,448.833 295.5,389.167 295.5,329.5C 315.5,329.5 335.5,329.5 355.5,329.5C 359.166,304.835 362.833,280.168 366.5,255.5C 342.833,255.5 319.167,255.5 295.5,255.5C 295.333,236.83 295.5,218.164 296,199.5C 298.493,183.339 307.66,173.173 323.5,169C 338.79,167.601 354.123,167.101 369.5,167.5C 370.149,146.101 369.482,124.935 367.5,104C 344.615,100.585 321.615,99.2521 298.5,100C 257.115,104.385 230.615,126.552 219,166.5C 217.568,172.426 216.568,178.426 216,184.5C 215.5,208.164 215.333,231.831 215.5,255.5C 193.833,255.5 172.167,255.5 150.5,255.5C 150.5,280.167 150.5,304.833 150.5,329.5C 172.167,329.5 193.833,329.5 215.5,329.5C 215.5,389.167 215.5,448.833 215.5,508.5C 123.271,491.765 57.7708,440.765 19,355.5C 8.86452,330.623 2.36452,304.957 -0.5,278.5C -0.5,263.167 -0.5,247.833 -0.5,232.5C 10.3875,142.857 54.7208,75.3573 132.5,30C 163.971,13.3053 197.304,3.1386 232.5,-0.5 Z"/></g>
<g><path style="opacity:0.999" fill="#fefefe" d="M 295.5,508.5 C 289.518,509.631 283.518,510.631 277.5,511.5C 262.833,511.5 248.167,511.5 233.5,511.5C 227.577,510.635 221.577,509.635 215.5,508.5C 215.5,448.833 215.5,389.167 215.5,329.5C 193.833,329.5 172.167,329.5 150.5,329.5C 150.5,304.833 150.5,280.167 150.5,255.5C 172.167,255.5 193.833,255.5 215.5,255.5C 215.333,231.831 215.5,208.164 216,184.5C 216.568,178.426 217.568,172.426 219,166.5C 230.615,126.552 257.115,104.385 298.5,100C 321.615,99.2521 344.615,100.585 367.5,104C 369.482,124.935 370.149,146.101 369.5,167.5C 354.123,167.101 338.79,167.601 323.5,169C 307.66,173.173 298.493,183.339 296,199.5C 295.5,218.164 295.333,236.83 295.5,255.5C 319.167,255.5 342.833,255.5 366.5,255.5C 362.833,280.168 359.166,304.835 355.5,329.5C 335.5,329.5 315.5,329.5 295.5,329.5C 295.5,389.167 295.5,448.833 295.5,508.5 Z"/></g>
</svg>
