<?xml version="1.0" encoding="UTF-8"?>
<!DOCTYPE svg PUBLIC "-//W3C//DTD SVG 1.1//EN" "http://www.w3.org/Graphics/SVG/1.1/DTD/svg11.dtd">
<svg xmlns="http://www.w3.org/2000/svg" version="1.1" width="512px" height="512px" style="shape-rendering:geometricPrecision; text-rendering:geometricPrecision; image-rendering:optimizeQuality; fill-rule:evenodd; clip-rule:evenodd" xmlns:xlink="http://www.w3.org/1999/xlink">
<g><path style="opacity:0.085" fill="#fffefc" d="M 207.5,-0.5 C 216.167,-0.5 224.833,-0.5 233.5,-0.5C 233.5,-0.166667 233.5,0.166667 233.5,0.5C 229.958,0.187225 226.625,0.520558 223.5,1.5C 218.924,1.43786 214.591,2.10452 210.5,3.5C 206.922,3.54877 203.589,4.21543 200.5,5.5C 193.497,6.25067 186.83,7.91733 180.5,10.5C 170.974,12.6723 161.974,16.0056 153.5,20.5C 91.8333,47.5 47.5,91.8333 20.5,153.5C 16.0056,161.974 12.6723,170.974 10.5,180.5C 7.91733,186.83 6.25067,193.497 5.5,200.5C 4.21543,203.589 3.54877,206.922 3.5,210.5C 1.77146,216.926 0.77146,223.593 0.5,230.5C 0.5,231.5 0.5,232.5 0.5,233.5C 0.166667,233.5 -0.166667,233.5 -0.5,233.5C -0.5,224.833 -0.5,216.167 -0.5,207.5C 19.9123,112.581 75.2456,47.0812 165.5,11C 179.371,6.20196 193.371,2.36863 207.5,-0.5 Z"/></g>
<g><path style="opacity:0.999" fill="#fcc232" d="M 233.5,0.5 C 233.5,0.166667 233.5,-0.166667 233.5,-0.5C 238.5,-0.5 243.5,-0.5 248.5,-0.5C 165.833,82.8333 82.8333,165.833 -0.5,248.5C -0.5,243.5 -0.5,238.5 -0.5,233.5C -0.166667,233.5 0.166667,233.5 0.5,233.5C 0.33591,236.187 0.502577,238.854 1,241.5C 81.1667,161.333 161.333,81.1667 241.5,1C 238.854,0.502577 236.187,0.33591 233.5,0.5 Z"/></g>
<g><path style="opacity:1" fill="#fcbe35" d="M 248.5,-0.5 C 252.5,-0.5 256.5,-0.5 260.5,-0.5C 174.75,86.7503 88.4169,173.584 1.5,260C 0.905578,260.464 0.238911,260.631 -0.5,260.5C -0.5,256.5 -0.5,252.5 -0.5,248.5C 82.8333,165.833 165.833,82.8333 248.5,-0.5 Z"/></g>
<g><path style="opacity:0.074" fill="#fffcfb" d="M 277.5,-0.5 C 284.167,-0.5 290.833,-0.5 297.5,-0.5C 324.767,4.47748 350.434,13.8108 374.5,27.5C 372.5,26.8333 370.5,26.1667 368.5,25.5C 366.574,23.7073 364.241,22.7073 361.5,22.5C 358.912,20.3754 355.912,19.0421 352.5,18.5C 350.208,16.7329 347.542,15.7329 344.5,15.5C 342.208,13.7329 339.542,12.7329 336.5,12.5C 333.45,10.8993 330.116,9.89934 326.5,9.5C 323.093,7.92569 319.427,6.92569 315.5,6.5C 313.626,5.71482 311.626,5.04816 309.5,4.5C 305.476,3.96187 301.476,3.29521 297.5,2.5C 293.167,1.83333 288.833,1.16667 284.5,0.5C 281.941,0.801552 279.607,0.468218 277.5,-0.5 Z"/></g>
<g><path style="opacity:1" fill="#fcc530" d="M 223.5,1.5 C 226.625,0.520558 229.958,0.187225 233.5,0.5C 236.187,0.33591 238.854,0.502577 241.5,1C 161.333,81.1667 81.1667,161.333 1,241.5C 0.502577,238.854 0.33591,236.187 0.5,233.5C 0.5,232.5 0.5,231.5 0.5,230.5C 76.2716,154.228 152.272,78.0616 228.5,2C 226.866,1.50649 225.199,1.33982 223.5,1.5 Z"/></g>
<g><path style="opacity:1" fill="#fcb839" d="M 260.5,-0.5 C 264.5,-0.5 268.5,-0.5 272.5,-0.5C 272.611,0.117425 272.944,0.617425 273.5,1C 182.667,91.8333 91.8333,182.667 1,273.5C 0.617425,272.944 0.117425,272.611 -0.5,272.5C -0.5,268.5 -0.5,264.5 -0.5,260.5C 0.238911,260.631 0.905578,260.464 1.5,260C 88.4169,173.584 174.75,86.7503 260.5,-0.5 Z"/></g>
<g><path style="opacity:1" fill="#fcb140" d="M 272.5,-0.5 C 274.167,-0.5 275.833,-0.5 277.5,-0.5C 279.607,0.468218 281.941,0.801552 284.5,0.5C 284.918,1.22158 285.584,1.72158 286.5,2C 244.249,43.7502 202.582,85.9169 161.5,128.5C 146.833,135.833 135.833,146.833 128.5,161.5C 85.9169,202.582 43.7502,244.249 2,286.5C 1.72158,285.584 1.22158,284.918 0.5,284.5C 0.801552,281.941 0.468218,279.607 -0.5,277.5C -0.5,275.833 -0.5,274.167 -0.5,272.5C 0.117425,272.611 0.617425,272.944 1,273.5C 91.8333,182.667 182.667,91.8333 273.5,1C 272.944,0.617425 272.611,0.117425 272.5,-0.5 Z"/></g>
<g><path style="opacity:1" fill="#fbc92d" d="M 223.5,1.5 C 225.199,1.33982 226.866,1.50649 228.5,2C 152.272,78.0616 76.2716,154.228 0.5,230.5C 0.77146,223.593 1.77146,216.926 3.5,210.5C 3.34332,211.873 3.50999,213.207 4,214.5C 74.1667,144.333 144.333,74.1667 214.5,4C 213.207,3.50999 211.873,3.34332 210.5,3.5C 214.591,2.10452 218.924,1.43786 223.5,1.5 Z"/></g>
<g><path style="opacity:1" fill="#fdab44" d="M 284.5,0.5 C 288.833,1.16667 293.167,1.83333 297.5,2.5C 256.58,41.7529 216.246,81.7529 176.5,122.5C 171.387,124.223 166.387,126.223 161.5,128.5C 202.582,85.9169 244.249,43.7502 286.5,2C 285.584,1.72158 284.918,1.22158 284.5,0.5 Z"/></g>
<g><path style="opacity:1" fill="#fbcc2a" d="M 210.5,3.5 C 211.873,3.34332 213.207,3.50999 214.5,4C 144.333,74.1667 74.1667,144.333 4,214.5C 3.50999,213.207 3.34332,211.873 3.5,210.5C 3.54877,206.922 4.21543,203.589 5.5,200.5C 5.35055,201.552 5.51722,202.552 6,203.5C 71.8333,137.667 137.667,71.8333 203.5,6C 202.552,5.51722 201.552,5.35055 200.5,5.5C 203.589,4.21543 206.922,3.54877 210.5,3.5 Z"/></g>
<g><path style="opacity:1" fill="#fda649" d="M 297.5,2.5 C 301.476,3.29521 305.476,3.96187 309.5,4.5C 308.391,5.28997 307.058,5.78997 305.5,6C 267.299,44.0346 229.299,82.2013 191.5,120.5C 186.452,120.842 181.452,121.508 176.5,122.5C 216.246,81.7529 256.58,41.7529 297.5,2.5 Z"/></g>
<g><path style="opacity:1" fill="#fbd127" d="M 200.5,5.5 C 201.552,5.35055 202.552,5.51722 203.5,6C 137.667,71.8333 71.8333,137.667 6,203.5C 5.51722,202.552 5.35055,201.552 5.5,200.5C 6.25067,193.497 7.91733,186.83 10.5,180.5C 10.3505,181.552 10.5172,182.552 11,183.5C 68.5,126 126,68.5 183.5,11C 182.552,10.5172 181.552,10.3505 180.5,10.5C 186.83,7.91733 193.497,6.25067 200.5,5.5 Z"/></g>
<g><path style="opacity:1" fill="#fe9f4d" d="M 309.5,4.5 C 311.626,5.04816 313.626,5.71482 315.5,6.5C 315.631,7.23891 315.464,7.90558 315,8.5C 277.632,45.7013 240.465,83.0346 203.5,120.5C 199.5,120.5 195.5,120.5 191.5,120.5C 229.299,82.2013 267.299,44.0346 305.5,6C 307.058,5.78997 308.391,5.28997 309.5,4.5 Z"/></g>
<g><path style="opacity:1" fill="#fe9853" d="M 315.5,6.5 C 319.427,6.92569 323.093,7.92569 326.5,9.5C 289.167,46.1667 252.167,83.1667 215.5,120.5C 211.5,120.5 207.5,120.5 203.5,120.5C 240.465,83.0346 277.632,45.7013 315,8.5C 315.464,7.90558 315.631,7.23891 315.5,6.5 Z"/></g>
<g><path style="opacity:1" fill="#fe9356" d="M 326.5,9.5 C 330.116,9.89934 333.45,10.8993 336.5,12.5C 299.549,47.7835 263.216,83.7835 227.5,120.5C 223.5,120.5 219.5,120.5 215.5,120.5C 252.167,83.1667 289.167,46.1667 326.5,9.5 Z"/></g>
<g><path style="opacity:1" fill="#fbd723" d="M 180.5,10.5 C 181.552,10.3505 182.552,10.5172 183.5,11C 126,68.5 68.5,126 11,183.5C 10.5172,182.552 10.3505,181.552 10.5,180.5C 12.6723,170.974 16.0056,161.974 20.5,153.5C 20.369,154.239 20.5357,154.906 21,155.5C 65.8333,110.667 110.667,65.8333 155.5,21C 154.906,20.5357 154.239,20.369 153.5,20.5C 161.974,16.0056 170.974,12.6723 180.5,10.5 Z"/></g>
<g><path style="opacity:1" fill="#fe8c5c" d="M 336.5,12.5 C 339.542,12.7329 342.208,13.7329 344.5,15.5C 309.833,50.5 275.167,85.5 240.5,120.5C 236.167,120.5 231.833,120.5 227.5,120.5C 263.216,83.7835 299.549,47.7835 336.5,12.5 Z"/></g>
<g><path style="opacity:1" fill="#ff8660" d="M 344.5,15.5 C 347.542,15.7329 350.208,16.7329 352.5,18.5C 318.167,52.1667 284.167,86.1667 250.5,120.5C 247.167,120.5 243.833,120.5 240.5,120.5C 275.167,85.5 309.833,50.5 344.5,15.5 Z"/></g>
<g><path style="opacity:1" fill="#ff7f63" d="M 352.5,18.5 C 355.912,19.0421 358.912,20.3754 361.5,22.5C 327.883,54.45 294.883,87.1167 262.5,120.5C 258.5,120.5 254.5,120.5 250.5,120.5C 284.167,86.1667 318.167,52.1667 352.5,18.5 Z"/></g>
<g><path style="opacity:1" fill="#fade1f" d="M 153.5,20.5 C 154.239,20.369 154.906,20.5357 155.5,21C 110.667,65.8333 65.8333,110.667 21,155.5C 20.5357,154.906 20.369,154.239 20.5,153.5C 47.5,91.8333 91.8333,47.5 153.5,20.5 Z"/></g>
<g><path style="opacity:1" fill="#ff7966" d="M 361.5,22.5 C 364.241,22.7073 366.574,23.7073 368.5,25.5C 336.5,56.8333 304.833,88.5 273.5,120.5C 269.833,120.5 266.167,120.5 262.5,120.5C 294.883,87.1167 327.883,54.45 361.5,22.5 Z"/></g>
<g><path style="opacity:1" fill="#ff7468" d="M 368.5,25.5 C 370.5,26.1667 372.5,26.8333 374.5,27.5C 376.153,27.6596 377.486,28.3263 378.5,29.5C 376.473,29.3379 374.473,29.5045 372.5,30C 342.298,60.0347 312.298,90.2013 282.5,120.5C 279.5,120.5 276.5,120.5 273.5,120.5C 304.833,88.5 336.5,56.8333 368.5,25.5 Z"/></g>
<g><path style="opacity:1" fill="#ff6d6a" d="M 378.5,29.5 C 379.306,30.7281 380.306,31.7281 381.5,32.5C 351.833,61.5 322.5,90.8333 293.5,120.5C 289.833,120.5 286.167,120.5 282.5,120.5C 312.298,90.2013 342.298,60.0347 372.5,30C 374.473,29.5045 376.473,29.3379 378.5,29.5 Z"/></g>
<g><path style="opacity:0.024" fill="#fff8f8" d="M 378.5,29.5 C 380.674,29.7497 382.341,30.7497 383.5,32.5C 382.833,32.5 382.167,32.5 381.5,32.5C 380.306,31.7281 379.306,30.7281 378.5,29.5 Z"/></g>
<g><path style="opacity:1" fill="#ff686e" d="M 381.5,32.5 C 382.167,32.5 382.833,32.5 383.5,32.5C 384.492,32.3284 385.158,32.6618 385.5,33.5C 385.973,34.9063 386.973,35.573 388.5,35.5C 390.853,36.3403 392.853,37.6736 394.5,39.5C 393.213,40.7683 392.213,40.435 391.5,38.5C 390.549,37.6744 389.549,37.5078 388.5,38C 360.965,65.368 333.632,92.868 306.5,120.5C 302.167,120.5 297.833,120.5 293.5,120.5C 322.5,90.8333 351.833,61.5 381.5,32.5 Z"/></g>
<g><path style="opacity:0.027" fill="#fff7f7" d="M 385.5,33.5 C 387.027,33.427 388.027,34.0937 388.5,35.5C 386.973,35.573 385.973,34.9063 385.5,33.5 Z"/></g>
<g><path style="opacity:1" fill="#ff5f71" d="M 394.5,39.5 C 398.392,41.0621 401.725,43.3954 404.5,46.5C 403.153,45.9717 401.819,45.805 400.5,46C 375.247,70.7509 350.581,95.9176 326.5,121.5C 319.891,120.577 313.224,120.244 306.5,120.5C 333.632,92.868 360.965,65.368 388.5,38C 389.549,37.5078 390.549,37.6744 391.5,38.5C 392.213,40.435 393.213,40.7683 394.5,39.5 Z"/></g>
<g><path style="opacity:1" fill="#ff5575" d="M 404.5,46.5 C 406.777,47.4486 408.777,48.7819 410.5,50.5C 409.127,50.3433 407.793,50.51 406.5,51C 382.247,74.751 358.581,98.9177 335.5,123.5C 332.539,122.677 329.539,122.01 326.5,121.5C 350.581,95.9176 375.247,70.7509 400.5,46C 401.819,45.805 403.153,45.9717 404.5,46.5 Z"/></g>
<g><path style="opacity:1" fill="#ff4e77" d="M 410.5,50.5 C 412.54,52.177 414.54,53.8437 416.5,55.5C 415.448,55.3505 414.448,55.5172 413.5,56C 390.5,79 367.5,102 344.5,125C 345.056,125.383 345.389,125.883 345.5,126.5C 342.167,125.5 338.833,124.5 335.5,123.5C 358.581,98.9177 382.247,74.751 406.5,51C 407.793,50.51 409.127,50.3433 410.5,50.5 Z"/></g>
<g><path style="opacity:1" fill="#ff447b" d="M 416.5,55.5 C 420.252,58.0413 423.585,61.0413 426.5,64.5C 425.448,64.3505 424.448,64.5172 423.5,65C 400.965,87.368 378.632,109.868 356.5,132.5C 352.792,130.43 349.125,128.43 345.5,126.5C 345.389,125.883 345.056,125.383 344.5,125C 367.5,102 390.5,79 413.5,56C 414.448,55.5172 415.448,55.3505 416.5,55.5 Z"/></g>
<g><path style="opacity:0.999" fill="#ff3b7e" d="M 426.5,64.5 C 427.872,65.5116 429.205,66.5116 430.5,67.5C 430.649,68.552 430.483,69.552 430,70.5C 407.632,92.7014 385.465,115.035 363.5,137.5C 360.953,136.066 358.619,134.4 356.5,132.5C 378.632,109.868 400.965,87.368 423.5,65C 424.448,64.5172 425.448,64.3505 426.5,64.5 Z"/></g>
<g><path style="opacity:1" fill="#fe3481" d="M 430.5,67.5 C 435.562,71.5593 439.895,76.226 443.5,81.5C 442.542,81.0472 441.708,80.3805 441,79.5C 418.582,102.42 395.749,124.753 372.5,146.5C 369.306,143.728 366.306,140.728 363.5,137.5C 385.465,115.035 407.632,92.7014 430,70.5C 430.483,69.552 430.649,68.552 430.5,67.5 Z"/></g>
<g><path style="opacity:1" fill="#f62f84" d="M 443.5,81.5 C 448.948,85.6087 453.281,90.6087 456.5,96.5C 445.887,108.781 434.554,120.448 422.5,131.5C 426.413,124.404 430.58,117.404 435,110.5C 436.301,108.598 436.968,106.598 437,104.5C 418.632,123.035 400.132,141.368 381.5,159.5C 378.759,155.03 375.759,150.696 372.5,146.5C 395.749,124.753 418.582,102.42 441,79.5C 441.708,80.3805 442.542,81.0472 443.5,81.5 Z"/></g>
<g><path style="opacity:0.993" fill="#e91c81" d="M 456.5,96.5 C 459.516,99.5203 462.183,102.854 464.5,106.5C 439.833,131.833 414.833,156.833 389.5,181.5C 389.5,181.167 389.5,180.833 389.5,180.5C 400.255,163.986 411.255,147.652 422.5,131.5C 434.554,120.448 445.887,108.781 456.5,96.5 Z"/></g>
<g><path style="opacity:0.997" fill="#e31c85" d="M 464.5,106.5 C 466.735,109.291 468.735,112.291 470.5,115.5C 444.167,142.5 417.5,169.167 390.5,195.5C 390.46,190.807 390.127,186.141 389.5,181.5C 414.833,156.833 439.833,131.833 464.5,106.5 Z"/></g>
<g><path style="opacity:1" fill="#f0328b" d="M 422.5,131.5 C 411.255,147.652 400.255,163.986 389.5,180.5C 387.645,173.281 384.979,166.281 381.5,159.5C 400.132,141.368 418.632,123.035 437,104.5C 436.968,106.598 436.301,108.598 435,110.5C 430.58,117.404 426.413,124.404 422.5,131.5 Z"/></g>
<g><path style="opacity:1" fill="#fefcfd" d="M 191.5,120.5 C 195.5,120.5 199.5,120.5 203.5,120.5C 207.5,120.5 211.5,120.5 215.5,120.5C 219.5,120.5 223.5,120.5 227.5,120.5C 231.833,120.5 236.167,120.5 240.5,120.5C 243.833,120.5 247.167,120.5 250.5,120.5C 254.5,120.5 258.5,120.5 262.5,120.5C 266.167,120.5 269.833,120.5 273.5,120.5C 276.5,120.5 279.5,120.5 282.5,120.5C 286.167,120.5 289.833,120.5 293.5,120.5C 297.833,120.5 302.167,120.5 306.5,120.5C 313.224,120.244 319.891,120.577 326.5,121.5C 329.539,122.01 332.539,122.677 335.5,123.5C 338.833,124.5 342.167,125.5 345.5,126.5C 349.125,128.43 352.792,130.43 356.5,132.5C 358.619,134.4 360.953,136.066 363.5,137.5C 366.306,140.728 369.306,143.728 372.5,146.5C 375.759,150.696 378.759,155.03 381.5,159.5C 384.979,166.281 387.645,173.281 389.5,180.5C 389.5,180.833 389.5,181.167 389.5,181.5C 390.127,186.141 390.46,190.807 390.5,195.5C 390.5,200.167 390.5,204.833 390.5,209.5C 390.5,214.5 390.5,219.5 390.5,224.5C 390.5,229.5 390.5,234.5 390.5,239.5C 390.5,245.167 390.5,250.833 390.5,256.5C 390.5,261.5 390.5,266.5 390.5,271.5C 390.5,276.5 390.5,281.5 390.5,286.5C 390.5,291.5 390.5,296.5 390.5,301.5C 390.5,307.167 390.5,312.833 390.5,318.5C 389.863,324.231 388.863,329.898 387.5,335.5C 384.073,347.695 378.073,358.362 369.5,367.5C 369.5,367.833 369.5,368.167 369.5,368.5C 359.719,377.396 348.386,383.729 335.5,387.5C 329.898,388.863 324.231,389.863 318.5,390.5C 312.833,390.5 307.167,390.5 301.5,390.5C 296.5,390.5 291.5,390.5 286.5,390.5C 281.5,390.5 276.5,390.5 271.5,390.5C 266.5,390.5 261.5,390.5 256.5,390.5C 250.833,390.5 245.167,390.5 239.5,390.5C 234.5,390.5 229.5,390.5 224.5,390.5C 219.5,390.5 214.5,390.5 209.5,390.5C 204.833,390.5 200.167,390.5 195.5,390.5C 190.819,390.331 186.152,389.998 181.5,389.5C 181.167,389.5 180.833,389.5 180.5,389.5C 173.252,387.637 166.252,384.97 159.5,381.5C 155.03,378.759 150.696,375.759 146.5,372.5C 143.833,369.167 140.833,366.167 137.5,363.5C 136.066,360.953 134.4,358.619 132.5,356.5C 130.738,352.638 128.738,348.972 126.5,345.5C 125.5,342.167 124.5,338.833 123.5,335.5C 122.677,332.539 122.01,329.539 121.5,326.5C 120.669,319.869 120.336,313.202 120.5,306.5C 120.5,302.167 120.5,297.833 120.5,293.5C 120.5,289.833 120.5,286.167 120.5,282.5C 120.5,279.5 120.5,276.5 120.5,273.5C 120.5,269.833 120.5,266.167 120.5,262.5C 120.5,258.5 120.5,254.5 120.5,250.5C 120.5,247.167 120.5,243.833 120.5,240.5C 120.5,236.167 120.5,231.833 120.5,227.5C 120.5,223.5 120.5,219.5 120.5,215.5C 120.5,211.5 120.5,207.5 120.5,203.5C 120.5,199.5 120.5,195.5 120.5,191.5C 120.842,186.452 121.508,181.452 122.5,176.5C 124.223,171.387 126.223,166.387 128.5,161.5C 135.833,146.833 146.833,135.833 161.5,128.5C 166.387,126.223 171.387,124.223 176.5,122.5C 181.452,121.508 186.452,120.842 191.5,120.5 Z"/></g>
<g><path style="opacity:0.998" fill="#dc1c89" d="M 470.5,115.5 C 472.735,118.291 474.735,121.291 476.5,124.5C 447.833,152.833 419.167,181.167 390.5,209.5C 390.5,204.833 390.5,200.167 390.5,195.5C 417.5,169.167 444.167,142.5 470.5,115.5 Z"/></g>
<g><path style="opacity:0.997" fill="#d71b8c" d="M 476.5,124.5 C 478.692,127.55 480.358,130.883 481.5,134.5C 451.167,164.5 420.833,194.5 390.5,224.5C 390.5,219.5 390.5,214.5 390.5,209.5C 419.167,181.167 447.833,152.833 476.5,124.5 Z"/></g>
<g><path style="opacity:0.998" fill="#d11b90" d="M 481.5,134.5 C 483.674,137.515 485.341,140.849 486.5,144.5C 454.5,176.167 422.5,207.833 390.5,239.5C 390.5,234.5 390.5,229.5 390.5,224.5C 420.833,194.5 451.167,164.5 481.5,134.5 Z"/></g>
<g><path style="opacity:1" fill="#fe8c5c" d="M 202.5,144.5 C 206.833,144.5 211.167,144.5 215.5,144.5C 192.167,168.5 168.5,192.167 144.5,215.5C 144.5,211.167 144.5,206.833 144.5,202.5C 164.167,183.5 183.5,164.167 202.5,144.5 Z"/></g>
<g><path style="opacity:1" fill="#ff8660" d="M 215.5,144.5 C 218.833,144.5 222.167,144.5 225.5,144.5C 198.833,171.833 171.833,198.833 144.5,225.5C 144.5,222.167 144.5,218.833 144.5,215.5C 168.5,192.167 192.167,168.5 215.5,144.5 Z"/></g>
<g><path style="opacity:1" fill="#ff7f63" d="M 225.5,144.5 C 229.5,144.5 233.5,144.5 237.5,144.5C 206.833,175.833 175.833,206.833 144.5,237.5C 144.5,233.5 144.5,229.5 144.5,225.5C 171.833,198.833 198.833,171.833 225.5,144.5 Z"/></g>
<g><path style="opacity:1" fill="#ff7966" d="M 237.5,144.5 C 241.167,144.5 244.833,144.5 248.5,144.5C 214.167,179.5 179.5,214.167 144.5,248.5C 144.5,244.833 144.5,241.167 144.5,237.5C 175.833,206.833 206.833,175.833 237.5,144.5 Z"/></g>
<g><path style="opacity:1" fill="#ff7367" d="M 248.5,144.5 C 251.5,144.5 254.5,144.5 257.5,144.5C 220.167,182.5 182.5,220.167 144.5,257.5C 144.5,254.5 144.5,251.5 144.5,248.5C 179.5,214.167 214.167,179.5 248.5,144.5 Z"/></g>
<g><path style="opacity:1" fill="#ff6e6b" d="M 257.5,144.5 C 261.167,144.5 264.833,144.5 268.5,144.5C 252.035,161.465 235.368,178.299 218.5,195C 218.728,195.399 219.062,195.565 219.5,195.5C 210.833,202.167 203.167,209.833 196.5,218.5C 196.565,218.062 196.399,217.728 196,217.5C 178.965,234.702 161.799,251.702 144.5,268.5C 144.5,264.833 144.5,261.167 144.5,257.5C 182.5,220.167 220.167,182.5 257.5,144.5 Z"/></g>
<g><path style="opacity:1" fill="#ff676d" d="M 268.5,144.5 C 272.833,144.5 277.167,144.5 281.5,144.5C 267.5,158.833 253.5,173.167 239.5,187.5C 232.622,189.604 225.956,192.271 219.5,195.5C 219.062,195.565 218.728,195.399 218.5,195C 235.368,178.299 252.035,161.465 268.5,144.5 Z"/></g>
<g><path style="opacity:1" fill="#ff5e70" d="M 281.5,144.5 C 288.167,144.5 294.833,144.5 301.5,144.5C 288.369,158.132 275.035,171.632 261.5,185C 262.737,185.232 263.737,185.732 264.5,186.5C 256.094,185.044 247.761,185.377 239.5,187.5C 253.5,173.167 267.5,158.833 281.5,144.5 Z"/></g>
<g><path style="opacity:1" fill="#ff5574" d="M 301.5,144.5 C 305.702,144.183 309.702,144.517 313.5,145.5C 298.551,158.781 284.218,172.781 270.5,187.5C 268.5,187.167 266.5,186.833 264.5,186.5C 263.737,185.732 262.737,185.232 261.5,185C 275.035,171.632 288.369,158.132 301.5,144.5 Z"/></g>
<g><path style="opacity:0.996" fill="#cb1c94" d="M 486.5,144.5 C 489.01,148.187 491.01,152.187 492.5,156.5C 491.761,156.369 491.094,156.536 490.5,157C 457.299,190.368 423.965,223.535 390.5,256.5C 390.5,250.833 390.5,245.167 390.5,239.5C 422.5,207.833 454.5,176.167 486.5,144.5 Z"/></g>
<g><path style="opacity:1" fill="#fe9458" d="M 202.5,144.5 C 183.5,164.167 164.167,183.5 144.5,202.5C 148.861,168.139 168.194,148.806 202.5,144.5 Z"/></g>
<g><path style="opacity:1" fill="#ff4a79" d="M 313.5,145.5 C 319.895,145.968 325.895,147.635 331.5,150.5C 330.448,150.351 329.448,150.517 328.5,151C 314.245,164.752 300.578,178.919 287.5,193.5C 281.969,191.101 276.302,189.101 270.5,187.5C 284.218,172.781 298.551,158.781 313.5,145.5 Z"/></g>
<g><path style="opacity:1" fill="#ff437e" d="M 331.5,150.5 C 336.343,152.418 340.677,155.084 344.5,158.5C 339.929,160.069 336.595,163.069 334.5,167.5C 318.149,164.849 310.815,171.849 312.5,188.5C 307.833,192.5 303.5,196.833 299.5,201.5C 295.463,198.82 291.463,196.154 287.5,193.5C 300.578,178.919 314.245,164.752 328.5,151C 329.448,150.517 330.448,150.351 331.5,150.5 Z"/></g>
<g><path style="opacity:0.998" fill="#c41b99" d="M 492.5,156.5 C 493.784,159.402 494.784,162.402 495.5,165.5C 461.217,201.451 426.217,236.784 390.5,271.5C 390.5,266.5 390.5,261.5 390.5,256.5C 423.965,223.535 457.299,190.368 490.5,157C 491.094,156.536 491.761,156.369 492.5,156.5 Z"/></g>
<g><path style="opacity:1" fill="#fdab44" d="M 128.5,161.5 C 126.223,166.387 124.223,171.387 122.5,176.5C 82.1396,216.194 42.1396,256.194 2.5,296.5C 1.74124,292.523 1.07457,288.523 0.5,284.5C 1.22158,284.918 1.72158,285.584 2,286.5C 43.7502,244.249 85.9169,202.582 128.5,161.5 Z"/></g>
<g><path style="opacity:1" fill="#fffcfd" d="M 334.5,167.5 C 345.759,174.788 347.426,183.955 339.5,195C 328.135,202.375 319.135,200.208 312.5,188.5C 310.815,171.849 318.149,164.849 334.5,167.5 Z"/></g>
<g><path style="opacity:1" fill="#f83687" d="M 344.5,158.5 C 352.088,164.754 357.755,172.42 361.5,181.5C 348.088,196.414 334.088,210.914 319.5,225C 318.906,225.464 318.239,225.631 317.5,225.5C 312.654,216.651 306.654,208.651 299.5,201.5C 303.5,196.833 307.833,192.5 312.5,188.5C 319.135,200.208 328.135,202.375 339.5,195C 347.426,183.955 345.759,174.788 334.5,167.5C 336.595,163.069 339.929,160.069 344.5,158.5 Z"/></g>
<g><path style="opacity:0.998" fill="#be1c9d" d="M 495.5,165.5 C 497.343,169.684 499.01,174.018 500.5,178.5C 499.761,178.369 499.094,178.536 498.5,179C 462.632,215.035 426.632,250.868 390.5,286.5C 390.5,281.5 390.5,276.5 390.5,271.5C 426.217,236.784 461.217,201.451 495.5,165.5 Z"/></g>
<g><path style="opacity:1" fill="#fda649" d="M 122.5,176.5 C 121.508,181.452 120.842,186.452 120.5,191.5C 82.2013,229.299 44.0346,267.299 6,305.5C 5.78997,307.058 5.28997,308.391 4.5,309.5C 3.83333,305.167 3.16667,300.833 2.5,296.5C 42.1396,256.194 82.1396,216.194 122.5,176.5 Z"/></g>
<g><path style="opacity:0.998" fill="#b81ba0" d="M 500.5,178.5 C 501.656,182.123 502.656,185.789 503.5,189.5C 465.833,226.833 428.167,264.167 390.5,301.5C 390.5,296.5 390.5,291.5 390.5,286.5C 426.632,250.868 462.632,215.035 498.5,179C 499.094,178.536 499.761,178.369 500.5,178.5 Z"/></g>
<g><path style="opacity:1" fill="#f0338b" d="M 361.5,181.5 C 363.61,185.502 364.943,189.835 365.5,194.5C 351.368,208.131 337.368,221.965 323.5,236C 322.906,236.464 322.239,236.631 321.5,236.5C 320.442,232.721 319.109,229.054 317.5,225.5C 318.239,225.631 318.906,225.464 319.5,225C 334.088,210.914 348.088,196.414 361.5,181.5 Z"/></g>
<g><path style="opacity:1" fill="#fffdfd" d="M 264.5,186.5 C 266.5,186.833 268.5,187.167 270.5,187.5C 276.302,189.101 281.969,191.101 287.5,193.5C 291.463,196.154 295.463,198.82 299.5,201.5C 306.654,208.651 312.654,216.651 317.5,225.5C 319.109,229.054 320.442,232.721 321.5,236.5C 323.182,243.719 323.848,251.052 323.5,258.5C 323.04,264.925 322.04,271.258 320.5,277.5C 312.167,298.5 297.5,313.167 276.5,321.5C 271.527,322.628 266.527,323.628 261.5,324.5C 253.059,324.847 244.725,324.18 236.5,322.5C 232.25,320.638 227.917,318.972 223.5,317.5C 219.378,314.266 215.045,311.266 210.5,308.5C 208.167,305.5 205.5,302.833 202.5,300.5C 199.497,295.825 196.497,291.159 193.5,286.5C 191.829,281.155 190.163,275.822 188.5,270.5C 188.149,267.097 187.482,263.763 186.5,260.5C 186.407,254.137 186.74,247.804 187.5,241.5C 189.885,233.695 192.885,226.028 196.5,218.5C 203.167,209.833 210.833,202.167 219.5,195.5C 225.956,192.271 232.622,189.604 239.5,187.5C 247.761,185.377 256.094,185.044 264.5,186.5 Z"/></g>
<g><path style="opacity:0.997" fill="#b11ba4" d="M 503.5,189.5 C 504.815,194.095 505.815,198.761 506.5,203.5C 467.833,241.833 429.167,280.167 390.5,318.5C 390.5,312.833 390.5,307.167 390.5,301.5C 428.167,264.167 465.833,226.833 503.5,189.5 Z"/></g>
<g><path style="opacity:1" fill="#fe9f4d" d="M 120.5,191.5 C 120.5,195.5 120.5,199.5 120.5,203.5C 83.0346,240.465 45.7013,277.632 8.5,315C 7.90558,315.464 7.23891,315.631 6.5,315.5C 5.71482,313.626 5.04816,311.626 4.5,309.5C 5.28997,308.391 5.78997,307.058 6,305.5C 44.0346,267.299 82.2013,229.299 120.5,191.5 Z"/></g>
<g><path style="opacity:1" fill="#ea348f" d="M 365.5,194.5 C 366.487,199.305 366.821,204.305 366.5,209.5C 352.873,226.396 338.54,242.729 323.5,258.5C 323.848,251.052 323.182,243.719 321.5,236.5C 322.239,236.631 322.906,236.464 323.5,236C 337.368,221.965 351.368,208.131 365.5,194.5 Z"/></g>
<g><path style="opacity:1" fill="#fe9853" d="M 120.5,203.5 C 120.5,207.5 120.5,211.5 120.5,215.5C 83.1667,252.167 46.1667,289.167 9.5,326.5C 7.92569,323.093 6.92569,319.427 6.5,315.5C 7.23891,315.631 7.90558,315.464 8.5,315C 45.7013,277.632 83.0346,240.465 120.5,203.5 Z"/></g>
<g><path style="opacity:0.998" fill="#ab1ca9" d="M 506.5,203.5 C 507.804,207.36 508.471,211.36 508.5,215.5C 468.784,256.216 428.451,296.216 387.5,335.5C 388.863,329.898 389.863,324.231 390.5,318.5C 429.167,280.167 467.833,241.833 506.5,203.5 Z"/></g>
<g><path style="opacity:1" fill="#ff5278" d="M 259.5,210.5 C 242.833,226.833 226.167,243.167 209.5,259.5C 209.799,229.904 224.632,213.238 254,209.5C 256.033,209.506 257.866,209.839 259.5,210.5 Z"/></g>
<g><path style="opacity:1" fill="#ff447b" d="M 259.5,210.5 C 264.659,210.446 269.325,211.779 273.5,214.5C 254.202,234.299 234.702,253.965 215,273.5C 214.536,274.094 214.369,274.761 214.5,275.5C 211.616,270.658 209.95,265.324 209.5,259.5C 226.167,243.167 242.833,226.833 259.5,210.5 Z"/></g>
<g><path style="opacity:1" fill="#fe9356" d="M 120.5,215.5 C 120.5,219.5 120.5,223.5 120.5,227.5C 83.7835,263.216 47.7835,299.549 12.5,336.5C 10.8993,333.45 9.89934,330.116 9.5,326.5C 46.1667,289.167 83.1667,252.167 120.5,215.5 Z"/></g>
<g><path style="opacity:1" fill="#ff3c7e" d="M 273.5,214.5 C 276.992,215.41 279.992,217.076 282.5,219.5C 260.55,239.782 239.217,260.782 218.5,282.5C 216.412,280.664 215.079,278.331 214.5,275.5C 214.369,274.761 214.536,274.094 215,273.5C 234.702,253.965 254.202,234.299 273.5,214.5 Z"/></g>
<g><path style="opacity:0.997" fill="#a51dac" d="M 508.5,215.5 C 509.709,219.618 510.376,223.951 510.5,228.5C 464.035,274.465 417.701,320.632 371.5,367C 370.906,367.464 370.239,367.631 369.5,367.5C 378.073,358.362 384.073,347.695 387.5,335.5C 428.451,296.216 468.784,256.216 508.5,215.5 Z"/></g>
<g><path style="opacity:1" fill="#ff676d" d="M 196.5,218.5 C 192.885,226.028 189.885,233.695 187.5,241.5C 187.631,240.761 187.464,240.094 187,239.5C 172.965,253.702 158.799,267.702 144.5,281.5C 144.5,277.167 144.5,272.833 144.5,268.5C 161.799,251.702 178.965,234.702 196,217.5C 196.399,217.728 196.565,218.062 196.5,218.5 Z"/></g>
<g><path style="opacity:1" fill="#fe3482" d="M 282.5,219.5 C 285.833,222.167 288.833,225.167 291.5,228.5C 270.783,250.218 249.45,271.218 227.5,291.5C 223.5,289.5 220.5,286.5 218.5,282.5C 239.217,260.782 260.55,239.782 282.5,219.5 Z"/></g>
<g><path style="opacity:1" fill="#df1e89" d="M 366.5,209.5 C 366.5,217.833 366.5,226.167 366.5,234.5C 351.201,249.298 336.035,264.298 321,279.5C 320.536,278.906 320.369,278.239 320.5,277.5C 322.04,271.258 323.04,264.925 323.5,258.5C 338.54,242.729 352.873,226.396 366.5,209.5 Z"/></g>
<g><path style="opacity:1" fill="#fe8c5c" d="M 120.5,227.5 C 120.5,231.833 120.5,236.167 120.5,240.5C 85.5,275.167 50.5,309.833 15.5,344.5C 13.7329,342.208 12.7329,339.542 12.5,336.5C 47.7835,299.549 83.7835,263.216 120.5,227.5 Z"/></g>
<g><path style="opacity:0.998" fill="#9f1bb0" d="M 510.5,228.5 C 510.232,230.099 510.566,231.432 511.5,232.5C 511.5,235.833 511.5,239.167 511.5,242.5C 421.5,331.833 331.833,421.5 242.5,511.5C 239.167,511.5 235.833,511.5 232.5,511.5C 231.432,510.566 230.099,510.232 228.5,510.5C 275.5,463.167 322.5,415.833 369.5,368.5C 369.5,368.167 369.5,367.833 369.5,367.5C 370.239,367.631 370.906,367.464 371.5,367C 417.701,320.632 464.035,274.465 510.5,228.5 Z"/></g>
<g><path style="opacity:1" fill="#f73386" d="M 291.5,228.5 C 295.152,232.808 297.486,237.808 298.5,243.5C 280.035,261.465 261.701,279.632 243.5,298C 242.552,298.483 241.552,298.649 240.5,298.5C 235.404,297.454 231.071,295.121 227.5,291.5C 249.45,271.218 270.783,250.218 291.5,228.5 Z"/></g>
<g><path style="opacity:1" fill="#d71e8d" d="M 366.5,234.5 C 366.5,239.5 366.5,244.5 366.5,249.5C 327.167,288.167 288.167,327.167 249.5,366.5C 244.5,366.5 239.5,366.5 234.5,366.5C 248.965,351.535 263.631,336.701 278.5,322C 277.906,321.536 277.239,321.369 276.5,321.5C 297.5,313.167 312.167,298.5 320.5,277.5C 320.369,278.239 320.536,278.906 321,279.5C 336.035,264.298 351.201,249.298 366.5,234.5 Z"/></g>
<g><path style="opacity:1" fill="#ff5e70" d="M 187.5,241.5 C 186.74,247.804 186.407,254.137 186.5,260.5C 172.5,274.167 158.5,287.833 144.5,301.5C 144.5,294.833 144.5,288.167 144.5,281.5C 158.799,267.702 172.965,253.702 187,239.5C 187.464,240.094 187.631,240.761 187.5,241.5 Z"/></g>
<g><path style="opacity:1" fill="#ff8660" d="M 120.5,240.5 C 120.5,243.833 120.5,247.167 120.5,250.5C 86.1667,284.167 52.1667,318.167 18.5,352.5C 16.7329,350.208 15.7329,347.542 15.5,344.5C 50.5,309.833 85.5,275.167 120.5,240.5 Z"/></g>
<g><path style="opacity:0.999" fill="#991bb4" d="M 511.5,242.5 C 511.5,248.167 511.5,253.833 511.5,259.5C 427.167,343.167 343.167,427.167 259.5,511.5C 253.833,511.5 248.167,511.5 242.5,511.5C 331.833,421.5 421.5,331.833 511.5,242.5 Z"/></g>
<g><path style="opacity:1" fill="#f0338b" d="M 298.5,243.5 C 300.019,246.526 300.685,249.859 300.5,253.5C 300.497,256.025 300.163,258.359 299.5,260.5C 286.035,273.465 272.701,286.631 259.5,300C 255.848,300.499 252.182,300.665 248.5,300.5C 245.505,300.706 242.838,300.04 240.5,298.5C 241.552,298.649 242.552,298.483 243.5,298C 261.701,279.632 280.035,261.465 298.5,243.5 Z"/></g>
<g><path style="opacity:1" fill="#d11b90" d="M 366.5,249.5 C 366.5,254.5 366.5,259.5 366.5,264.5C 332.167,298.167 298.167,332.167 264.5,366.5C 259.5,366.5 254.5,366.5 249.5,366.5C 288.167,327.167 327.167,288.167 366.5,249.5 Z"/></g>
<g><path style="opacity:1" fill="#ff7f63" d="M 120.5,250.5 C 120.5,254.5 120.5,258.5 120.5,262.5C 87.1167,294.883 54.45,327.883 22.5,361.5C 20.4082,358.912 19.0749,355.912 18.5,352.5C 52.1667,318.167 86.1667,284.167 120.5,250.5 Z"/></g>
<g><path style="opacity:0.998" fill="#921bb8" d="M 511.5,259.5 C 511.5,264.5 511.5,269.5 511.5,274.5C 432.118,352.882 353.451,431.882 275.5,511.5C 270.167,511.5 264.833,511.5 259.5,511.5C 343.167,427.167 427.167,343.167 511.5,259.5 Z"/></g>
<g><path style="opacity:1" fill="#ff5575" d="M 186.5,260.5 C 187.482,263.763 188.149,267.097 188.5,270.5C 173.919,283.578 159.752,297.245 146,311.5C 145.536,312.094 145.369,312.761 145.5,313.5C 144.517,309.702 144.183,305.702 144.5,301.5C 158.5,287.833 172.5,274.167 186.5,260.5 Z"/></g>
<g><path style="opacity:1" fill="#eb3a91" d="M 299.5,260.5 C 295.709,286.261 280.709,299.928 254.5,301.5C 252.304,301.495 250.304,301.162 248.5,300.5C 252.182,300.665 255.848,300.499 259.5,300C 272.701,286.631 286.035,273.465 299.5,260.5 Z"/></g>
<g><path style="opacity:1" fill="#ff7966" d="M 120.5,262.5 C 120.5,266.167 120.5,269.833 120.5,273.5C 88.5,304.833 56.8333,336.5 25.5,368.5C 23.7073,366.574 22.7073,364.241 22.5,361.5C 54.45,327.883 87.1167,294.883 120.5,262.5 Z"/></g>
<g><path style="opacity:1" fill="#cb1b94" d="M 366.5,264.5 C 366.5,270.167 366.5,275.833 366.5,281.5C 337.833,309.5 309.5,337.833 281.5,366.5C 275.833,366.5 270.167,366.5 264.5,366.5C 298.167,332.167 332.167,298.167 366.5,264.5 Z"/></g>
<g><path style="opacity:1" fill="#ff7569" d="M 120.5,273.5 C 120.5,276.5 120.5,279.5 120.5,282.5C 90.2013,312.298 60.0347,342.298 30,372.5C 29.5045,374.473 29.3379,376.473 29.5,378.5C 27.9925,376.819 26.9925,374.819 26.5,372.5C 26.1667,371.167 25.8333,369.833 25.5,368.5C 56.8333,336.5 88.5,304.833 120.5,273.5 Z"/></g>
<g><path style="opacity:0.074" fill="#fffcfb" d="M -0.5,277.5 C 0.468218,279.607 0.801552,281.941 0.5,284.5C 1.07457,288.523 1.74124,292.523 2.5,296.5C 3.16667,300.833 3.83333,305.167 4.5,309.5C 5.04816,311.626 5.71482,313.626 6.5,315.5C 6.92569,319.427 7.92569,323.093 9.5,326.5C 9.89934,330.116 10.8993,333.45 12.5,336.5C 12.7329,339.542 13.7329,342.208 15.5,344.5C 15.7329,347.542 16.7329,350.208 18.5,352.5C 19.0749,355.912 20.4082,358.912 22.5,361.5C 22.7073,364.241 23.7073,366.574 25.5,368.5C 25.8333,369.833 26.1667,371.167 26.5,372.5C 19.6967,361.218 14.1967,349.218 10,336.5C 6.0022,323.499 2.5022,310.499 -0.5,297.5C -0.5,290.833 -0.5,284.167 -0.5,277.5 Z"/></g>
<g><path style="opacity:1" fill="#ff4a79" d="M 188.5,270.5 C 190.163,275.822 191.829,281.155 193.5,286.5C 179.201,300.298 165.035,314.298 151,328.5C 150.517,329.448 150.351,330.448 150.5,331.5C 147.635,325.895 145.968,319.895 145.5,313.5C 145.369,312.761 145.536,312.094 146,311.5C 159.752,297.245 173.919,283.578 188.5,270.5 Z"/></g>
<g><path style="opacity:0.997" fill="#8c1bbc" d="M 511.5,274.5 C 511.5,275.833 511.5,277.167 511.5,278.5C 510.551,282.657 509.884,286.99 509.5,291.5C 437.035,363.465 364.701,435.632 292.5,508C 293.056,508.383 293.389,508.883 293.5,509.5C 288.306,509.741 283.306,510.407 278.5,511.5C 277.5,511.5 276.5,511.5 275.5,511.5C 353.451,431.882 432.118,352.882 511.5,274.5 Z"/></g>
<g><path style="opacity:1" fill="#c41b98" d="M 366.5,281.5 C 366.5,286.5 366.5,291.5 366.5,296.5C 342.833,319.5 319.5,342.833 296.5,366.5C 291.5,366.5 286.5,366.5 281.5,366.5C 309.5,337.833 337.833,309.5 366.5,281.5 Z"/></g>
<g><path style="opacity:1" fill="#ff6d6b" d="M 120.5,282.5 C 120.5,286.167 120.5,289.833 120.5,293.5C 91.2013,322.298 62.0347,351.298 33,380.5C 32.5172,381.448 32.3505,382.448 32.5,383.5C 31.6618,383.158 31.3284,382.492 31.5,381.5C 31.573,379.973 30.9063,378.973 29.5,378.5C 29.3379,376.473 29.5045,374.473 30,372.5C 60.0347,342.298 90.2013,312.298 120.5,282.5 Z"/></g>
<g><path style="opacity:0.996" fill="#861cc0" d="M 509.5,291.5 C 508.608,297.852 507.608,304.185 506.5,310.5C 440.75,374.749 375.417,439.583 310.5,505C 310.728,505.399 311.062,505.565 311.5,505.5C 305.693,507.197 299.693,508.531 293.5,509.5C 293.389,508.883 293.056,508.383 292.5,508C 364.701,435.632 437.035,363.465 509.5,291.5 Z"/></g>
<g><path style="opacity:1" fill="#ff686e" d="M 120.5,293.5 C 120.5,297.833 120.5,302.167 120.5,306.5C 92.868,333.632 65.368,360.965 38,388.5C 37.6213,390.57 38.4547,392.07 40.5,393C 39.944,393.383 39.6107,393.883 39.5,394.5C 36.4208,391.35 34.0875,387.683 32.5,383.5C 32.3505,382.448 32.5172,381.448 33,380.5C 62.0347,351.298 91.2013,322.298 120.5,293.5 Z"/></g>
<g><path style="opacity:1" fill="#ff3f7d" d="M 193.5,286.5 C 196.497,291.159 199.497,295.825 202.5,300.5C 201.883,300.389 201.383,300.056 201,299.5C 187,313.5 173,327.5 159,341.5C 158.517,342.448 158.351,343.448 158.5,344.5C 155.084,340.677 152.418,336.343 150.5,331.5C 150.351,330.448 150.517,329.448 151,328.5C 165.035,314.298 179.201,300.298 193.5,286.5 Z"/></g>
<g><path style="opacity:1" fill="#fe3482" d="M 202.5,300.5 C 205.5,302.833 208.167,305.5 210.5,308.5C 197.088,323.414 183.088,337.914 168.5,352C 167.906,352.464 167.239,352.631 166.5,352.5C 163.5,350.167 160.833,347.5 158.5,344.5C 158.351,343.448 158.517,342.448 159,341.5C 173,327.5 187,313.5 201,299.5C 201.383,300.056 201.883,300.389 202.5,300.5 Z"/></g>
<g><path style="opacity:1" fill="#be1c9d" d="M 366.5,296.5 C 366.823,303.022 366.49,309.355 365.5,315.5C 365.649,314.448 365.483,313.448 365,312.5C 346.965,330.368 329.132,348.368 311.5,366.5C 306.5,366.5 301.5,366.5 296.5,366.5C 319.5,342.833 342.833,319.5 366.5,296.5 Z"/></g>
<g><path style="opacity:1" fill="#ff5f71" d="M 120.5,306.5 C 120.336,313.202 120.669,319.869 121.5,326.5C 95.9176,350.581 70.7509,375.247 46,400.5C 45.805,401.819 45.9717,403.153 46.5,404.5C 43.3954,401.725 41.0621,398.392 39.5,394.5C 39.6107,393.883 39.944,393.383 40.5,393C 38.4547,392.07 37.6213,390.57 38,388.5C 65.368,360.965 92.868,333.632 120.5,306.5 Z"/></g>
<g><path style="opacity:0.996" fill="#801bc4" d="M 506.5,310.5 C 504.615,318.389 502.282,326.055 499.5,333.5C 443.784,388.216 388.784,443.549 334.5,499.5C 327.058,502.277 319.391,504.277 311.5,505.5C 311.062,505.565 310.728,505.399 310.5,505C 375.417,439.583 440.75,374.749 506.5,310.5 Z"/></g>
<g><path style="opacity:1" fill="#f73386" d="M 210.5,308.5 C 215.045,311.266 219.378,314.266 223.5,317.5C 209.449,332.552 194.782,346.886 179.5,360.5C 174.657,358.582 170.323,355.916 166.5,352.5C 167.239,352.631 167.906,352.464 168.5,352C 183.088,337.914 197.088,323.414 210.5,308.5 Z"/></g>
<g><path style="opacity:1" fill="#b922a2" d="M 365.5,315.5 C 359.189,344.81 341.189,361.81 311.5,366.5C 329.132,348.368 346.965,330.368 365,312.5C 365.483,313.448 365.649,314.448 365.5,315.5 Z"/></g>
<g><path style="opacity:1" fill="#f0338b" d="M 223.5,317.5 C 227.917,318.972 232.25,320.638 236.5,322.5C 222.5,336.833 208.5,351.167 194.5,365.5C 189.085,364.806 184.085,363.14 179.5,360.5C 194.782,346.886 209.449,332.552 223.5,317.5 Z"/></g>
<g><path style="opacity:1" fill="#ea338f" d="M 236.5,322.5 C 244.725,324.18 253.059,324.847 261.5,324.5C 260.048,325.302 258.382,325.802 256.5,326C 240.936,339.739 225.269,353.239 209.5,366.5C 204.305,366.821 199.305,366.487 194.5,365.5C 208.5,351.167 222.5,336.833 236.5,322.5 Z"/></g>
<g><path style="opacity:1" fill="#de1d88" d="M 276.5,321.5 C 277.239,321.369 277.906,321.536 278.5,322C 263.631,336.701 248.965,351.535 234.5,366.5C 226.167,366.5 217.833,366.5 209.5,366.5C 225.269,353.239 240.936,339.739 256.5,326C 258.382,325.802 260.048,325.302 261.5,324.5C 266.527,323.628 271.527,322.628 276.5,321.5 Z"/></g>
<g><path style="opacity:1" fill="#ff5574" d="M 121.5,326.5 C 122.01,329.539 122.677,332.539 123.5,335.5C 98.2167,359.116 73.55,383.449 49.5,408.5C 48.0256,407.564 47.0256,406.23 46.5,404.5C 45.9717,403.153 45.805,401.819 46,400.5C 70.7509,375.247 95.9176,350.581 121.5,326.5 Z"/></g>
<g><path style="opacity:0.999" fill="#ff4e77" d="M 123.5,335.5 C 124.5,338.833 125.5,342.167 126.5,345.5C 125.883,345.389 125.383,345.056 125,344.5C 101.632,368.035 78.132,391.368 54.5,414.5C 52.1097,413.109 50.4431,411.109 49.5,408.5C 73.55,383.449 98.2167,359.116 123.5,335.5 Z"/></g>
<g><path style="opacity:0.993" fill="#791bc8" d="M 499.5,333.5 C 497.66,342.029 494.66,350.029 490.5,357.5C 445.833,401.5 401.5,445.833 357.5,490.5C 350.304,494.459 342.637,497.459 334.5,499.5C 388.784,443.549 443.784,388.216 499.5,333.5 Z"/></g>
<g><path style="opacity:1" fill="#ff447b" d="M 126.5,345.5 C 128.738,348.972 130.738,352.638 132.5,356.5C 109.868,378.632 87.368,400.965 65,423.5C 64.5172,424.448 64.3505,425.448 64.5,426.5C 60.6925,422.878 57.3591,418.878 54.5,414.5C 78.132,391.368 101.632,368.035 125,344.5C 125.383,345.056 125.883,345.389 126.5,345.5 Z"/></g>
<g><path style="opacity:1" fill="#ff3b7e" d="M 132.5,356.5 C 134.4,358.619 136.066,360.953 137.5,363.5C 115.035,385.465 92.7014,407.632 70.5,430C 69.552,430.483 68.552,430.649 67.5,430.5C 66.5116,429.205 65.5116,427.872 64.5,426.5C 64.3505,425.448 64.5172,424.448 65,423.5C 87.368,400.965 109.868,378.632 132.5,356.5 Z"/></g>
<g><path style="opacity:0.988" fill="#731bcc" d="M 490.5,357.5 C 486.638,367.557 481.971,377.224 476.5,386.5C 446.251,415.248 416.417,444.581 387,474.5C 386.536,475.094 386.369,475.761 386.5,476.5C 377.224,481.971 367.557,486.638 357.5,490.5C 401.5,445.833 445.833,401.5 490.5,357.5 Z"/></g>
<g><path style="opacity:1" fill="#fe3481" d="M 137.5,363.5 C 140.833,366.167 143.833,369.167 146.5,372.5C 124.753,395.749 102.42,418.582 79.5,441C 80.2524,441.671 80.5858,442.504 80.5,443.5C 75.8333,439.5 71.5,435.167 67.5,430.5C 68.552,430.649 69.552,430.483 70.5,430C 92.7014,407.632 115.035,385.465 137.5,363.5 Z"/></g>
<g><path style="opacity:0.997" fill="#a51dac" d="M 369.5,368.5 C 322.5,415.833 275.5,463.167 228.5,510.5C 224.846,510.058 221.179,509.724 217.5,509.5C 217.389,508.883 217.056,508.383 216.5,508C 256.751,468.25 296.418,428.083 335.5,387.5C 348.386,383.729 359.719,377.396 369.5,368.5 Z"/></g>
<g><path style="opacity:1" fill="#f62f84" d="M 146.5,372.5 C 150.696,375.759 155.03,378.759 159.5,381.5C 141.368,400.132 123.035,418.632 104.5,437C 106.598,436.968 108.598,436.301 110.5,435C 117.404,430.58 124.404,426.413 131.5,422.5C 120.167,434.167 108.833,445.833 97.5,457.5C 91.2811,453.55 85.6144,448.883 80.5,443.5C 80.5858,442.504 80.2524,441.671 79.5,441C 102.42,418.582 124.753,395.749 146.5,372.5 Z"/></g>
<g><path style="opacity:0.027" fill="#fff6f6" d="M 29.5,378.5 C 30.9063,378.973 31.573,379.973 31.5,381.5C 30.0937,381.027 29.427,380.027 29.5,378.5 Z"/></g>
<g><path style="opacity:1" fill="#f0328b" d="M 159.5,381.5 C 166.252,384.97 173.252,387.637 180.5,389.5C 163.986,400.255 147.652,411.255 131.5,422.5C 124.404,426.413 117.404,430.58 110.5,435C 108.598,436.301 106.598,436.968 104.5,437C 123.035,418.632 141.368,400.132 159.5,381.5 Z"/></g>
<g><path style="opacity:0.997" fill="#ab1ca9" d="M 335.5,387.5 C 296.418,428.083 256.751,468.25 216.5,508C 217.056,508.383 217.389,508.883 217.5,509.5C 212.766,508.712 208.1,507.712 203.5,506.5C 241.833,467.833 280.167,429.167 318.5,390.5C 324.231,389.863 329.898,388.863 335.5,387.5 Z"/></g>
<g><path style="opacity:0.997" fill="#e31c85" d="M 181.5,389.5 C 186.152,389.998 190.819,390.331 195.5,390.5C 169.535,416.965 143.368,443.299 117,469.5C 116.536,470.094 116.369,470.761 116.5,471.5C 113.129,469.154 109.796,466.821 106.5,464.5C 131.833,439.833 156.833,414.833 181.5,389.5 Z"/></g>
<g><path style="opacity:0.998" fill="#dc1b89" d="M 195.5,390.5 C 200.167,390.5 204.833,390.5 209.5,390.5C 181.45,419.55 152.784,447.884 123.5,475.5C 121.004,474.42 118.67,473.086 116.5,471.5C 116.369,470.761 116.536,470.094 117,469.5C 143.368,443.299 169.535,416.965 195.5,390.5 Z"/></g>
<g><path style="opacity:0.997" fill="#d71c8c" d="M 209.5,390.5 C 214.5,390.5 219.5,390.5 224.5,390.5C 194.5,420.833 164.5,451.167 134.5,481.5C 130.345,480.258 126.678,478.258 123.5,475.5C 152.784,447.884 181.45,419.55 209.5,390.5 Z"/></g>
<g><path style="opacity:0.996" fill="#d11b90" d="M 224.5,390.5 C 229.5,390.5 234.5,390.5 239.5,390.5C 207.833,422.5 176.167,454.5 144.5,486.5C 140.849,485.341 137.515,483.674 134.5,481.5C 164.5,451.167 194.5,420.833 224.5,390.5 Z"/></g>
<g><path style="opacity:0.997" fill="#cb1b94" d="M 239.5,390.5 C 245.167,390.5 250.833,390.5 256.5,390.5C 223.535,423.965 190.368,457.299 157,490.5C 156.536,491.094 156.369,491.761 156.5,492.5C 152.187,491.01 148.187,489.01 144.5,486.5C 176.167,454.5 207.833,422.5 239.5,390.5 Z"/></g>
<g><path style="opacity:0.997" fill="#c41b98" d="M 256.5,390.5 C 261.5,390.5 266.5,390.5 271.5,390.5C 236.784,426.217 201.451,461.217 165.5,495.5C 162.402,494.784 159.402,493.784 156.5,492.5C 156.369,491.761 156.536,491.094 157,490.5C 190.368,457.299 223.535,423.965 256.5,390.5 Z"/></g>
<g><path style="opacity:0.996" fill="#be1c9d" d="M 271.5,390.5 C 276.5,390.5 281.5,390.5 286.5,390.5C 250.868,426.632 215.035,462.632 179,498.5C 178.536,499.094 178.369,499.761 178.5,500.5C 174.018,499.01 169.684,497.343 165.5,495.5C 201.451,461.217 236.784,426.217 271.5,390.5 Z"/></g>
<g><path style="opacity:0.998" fill="#b81ba0" d="M 286.5,390.5 C 291.5,390.5 296.5,390.5 301.5,390.5C 264.167,428.167 226.833,465.833 189.5,503.5C 185.789,502.656 182.123,501.656 178.5,500.5C 178.369,499.761 178.536,499.094 179,498.5C 215.035,462.632 250.868,426.632 286.5,390.5 Z"/></g>
<g><path style="opacity:0.997" fill="#b11ca4" d="M 301.5,390.5 C 307.167,390.5 312.833,390.5 318.5,390.5C 280.167,429.167 241.833,467.833 203.5,506.5C 198.761,505.815 194.095,504.815 189.5,503.5C 226.833,465.833 264.167,428.167 301.5,390.5 Z"/></g>
<g><path style="opacity:0.939" fill="#6e1bcf" d="M 476.5,386.5 C 454.167,424.167 424.167,454.167 386.5,476.5C 386.369,475.761 386.536,475.094 387,474.5C 416.417,444.581 446.251,415.248 476.5,386.5 Z"/></g>
<g><path style="opacity:0.995" fill="#e91c81" d="M 180.5,389.5 C 180.833,389.5 181.167,389.5 181.5,389.5C 156.833,414.833 131.833,439.833 106.5,464.5C 103.19,462.518 100.19,460.185 97.5,457.5C 108.833,445.833 120.167,434.167 131.5,422.5C 147.652,411.255 163.986,400.255 180.5,389.5 Z"/></g>
</svg>
