<?xml version="1.0" encoding="UTF-8"?>
<!DOCTYPE svg PUBLIC "-//W3C//DTD SVG 1.1//EN" "http://www.w3.org/Graphics/SVG/1.1/DTD/svg11.dtd">
<svg xmlns="http://www.w3.org/2000/svg" version="1.1" width="512px" height="512px" style="shape-rendering:geometricPrecision; text-rendering:geometricPrecision; image-rendering:optimizeQuality; fill-rule:evenodd; clip-rule:evenodd" xmlns:xlink="http://www.w3.org/1999/xlink">
<g><path style="opacity:0.994" fill="#007ab9" d="M 233.5,-0.5 C 248.167,-0.5 262.833,-0.5 277.5,-0.5C 377.805,11.9821 449.305,63.9821 492,155.5C 502.297,180.687 508.797,206.687 511.5,233.5C 511.5,248.167 511.5,262.833 511.5,277.5C 499.018,377.805 447.018,449.305 355.5,492C 330.316,502.296 304.316,508.796 277.5,511.5C 262.833,511.5 248.167,511.5 233.5,511.5C 133.193,499.016 61.693,447.016 19,355.5C 8.70332,330.313 2.20332,304.313 -0.5,277.5C -0.5,262.833 -0.5,248.167 -0.5,233.5C 11.9821,133.195 63.9821,61.6947 155.5,19C 180.687,8.70332 206.687,2.20332 233.5,-0.5 Z"/></g>
<g><path style="opacity:1" fill="#eff1f1" d="M 147.5,109.5 C 161.381,107.078 173.547,110.411 184,119.5C 193.201,132.328 193.867,145.661 186,159.5C 177.532,169.062 166.865,173.395 154,172.5C 129.651,168.149 119.985,153.816 125,129.5C 129.407,119.234 136.907,112.567 147.5,109.5 Z"/></g>
<g><path style="opacity:1" fill="#f0f1f1" d="M 282.5,197.5 C 282.334,206.173 282.5,214.84 283,223.5C 283.717,222.956 284.217,222.289 284.5,221.5C 300.349,199.254 322.015,190.087 349.5,194C 376.099,198.263 393.932,213.097 403,238.5C 405.178,246.055 406.844,253.722 408,261.5C 408.5,301.499 408.667,341.499 408.5,381.5C 388.167,381.5 367.833,381.5 347.5,381.5C 347.963,343.465 347.463,305.465 346,267.5C 340.577,246.09 327.077,237.923 305.5,243C 293.233,248.267 285.733,257.434 283,270.5C 282.5,307.498 282.333,344.498 282.5,381.5C 262.167,381.5 241.833,381.5 221.5,381.5C 221.5,320.167 221.5,258.833 221.5,197.5C 241.833,197.5 262.167,197.5 282.5,197.5 Z"/></g>
<g><path style="opacity:1" fill="#cee1e9" d="M 187.5,198.5 C 167.5,198.5 147.5,198.5 127.5,198.5C 127.5,259.5 127.5,320.5 127.5,381.5C 126.501,320.336 126.168,259.002 126.5,197.5C 147.007,197.17 167.34,197.503 187.5,198.5 Z"/></g>
<g><path style="opacity:1" fill="#f0f2f1" d="M 187.5,198.5 C 187.5,259.5 187.5,320.5 187.5,381.5C 167.5,381.5 147.5,381.5 127.5,381.5C 127.5,320.5 127.5,259.5 127.5,198.5C 147.5,198.5 167.5,198.5 187.5,198.5 Z"/></g>
<g><path style="opacity:1" fill="#5da7ce" d="M 282.5,197.5 C 283.167,205.5 283.833,213.5 284.5,221.5C 284.217,222.289 283.717,222.956 283,223.5C 282.5,214.84 282.334,206.173 282.5,197.5 Z"/></g>
</svg>
